<?xml version="1.0" standalone="no"?><!DOCTYPE svg PUBLIC "-//W3C//DTD SVG 1.1//EN" "http://www.w3.org/Graphics/SVG/1.1/DTD/svg11.dtd"><svg t="1634623079004" class="icon" viewBox="0 0 1024 1024" version="1.1" xmlns="http://www.w3.org/2000/svg" p-id="2235" xmlns:xlink="http://www.w3.org/1999/xlink" width="200" height="200"><defs><style type="text/css"></style></defs><path d="M315.257367 361.717362c75.093666 32.962751 146.008354 64.134511 178.160895 118.290647 0.213213 0.383784 0.682282 0.554354 0.938138 0.938138 0.81021 1.193994 1.876276 1.833633 2.899699 2.857056 2.132131 2.089489 4.349548 3.752551 7.121318 4.775974 0.682282 0.255856 1.023423 0.98078 1.748348 1.151351a20.766959 20.766959 0 0 0 11.215011 0c0.724925-0.213213 1.066066-0.895495 1.748348-1.151351a20.383176 20.383176 0 0 0 7.291889-4.903902c0.938138-0.938138 1.961561-1.535135 2.686485-2.643843 0.298498-0.383784 0.767567-0.554354 1.023423-0.980781 32.152541-54.198779 103.067229-85.327896 178.160896-118.290647 128.738091-56.544123 274.575875-120.635991 311.930815-318.838921C1022.314764 35.842407 1023.423472 28.635803 1023.423472 21.429199a21.321313 21.321313 0 0 0-42.429414-3.112911 343.571645 343.571645 0 0 1-2.260059 13.773568c-13.133929 34.668456-85.242611 68.654629-161.530271 104.602364C701.471639 191.189497 563.565384 256.475359 511.711949 370.587028c-51.853434-114.11167-189.75969-179.354889-305.491779-233.894808C129.932511 100.744485 57.781186 66.800954 44.6899 32.089856A343.571645 343.571645 0 0 1 42.42984 18.316288 21.321313 21.321313 0 0 0 0.000427 21.429199c0 7.206604 1.108708 14.413208 3.283482 21.449242 37.354941 198.20293 183.235368 262.294798 311.973458 318.838921zM639.63983 490.498095a63.96394 63.96394 0 1 0 127.970523-0.042643A63.96394 63.96394 0 0 0 639.63983 490.498095z m-143.577725-219.225745a21.321313 21.321313 0 0 0 31.342331-0.042642c28.186776-30.702691 64.433009-59.74232 110.828187-88.78195a21.321313 21.321313 0 0 0-6.609607-38.847433C585.654264 133.28081 545.314339 128.035767 511.711949 128.035767s-73.942315 5.245043-119.911067 15.564558a21.363956 21.363956 0 0 0-6.566964 38.890076c46.395178 29.039629 82.641411 58.036615 110.828187 88.781949z m412.48213 500.496512a21.363956 21.363956 0 0 0-28.442632 1.151351c-8.741739 8.528525-16.929123 16.033628-24.135727 22.387379a21.1081 21.1081 0 0 0-6.865463 12.067863c-12.238434 64.987363-53.217998 129.974727-112.448607 178.331466a21.321313 21.321313 0 0 0 13.47507 37.82401H1002.102158a21.321313 21.321313 0 0 0 21.321314-21.321313c0-112.022181-62.471448-187.158489-114.879237-230.440756zM980.780845 490.498095c0-65.328504-19.743536-125.710464-57.055835-174.6642a21.406599 21.406599 0 0 0-29.295484-4.477476 619.170942 619.170942 0 0 1-62.17295 37.994581c50.872654 46.565749 75.605377 118.50386 56.927906 189.75969a192.147677 192.147677 0 0 1-234.235949 137.01076c-71.639613-18.805398-122.384339-76.159732-137.735685-143.876223-3.923122 0.341141-7.46246 0.426426-11.087083 0.127928-15.351346 67.631206-66.096072 124.942897-137.693042 143.748295a192.275605 192.275605 0 0 1-234.23595-137.01076c-18.634828-71.213187 6.097896-143.151298 56.97055-189.717047a628.211179 628.211179 0 0 1-62.215593-38.037224 21.406599 21.406599 0 0 0-29.252842 4.477476C62.38659 364.787631 42.643054 425.169591 42.643054 490.498095c0 140.42217 135.560911 259.224529 170.954291 287.837732C221.14509 882.000052 335.640543 1023.530931 511.711949 1023.530931s290.56686-141.530879 298.114605-245.195104c35.39338-28.613203 170.954291-147.415561 170.954291-287.837732z m-344.381855 267.156057l-106.606567 170.570508a21.321313 21.321313 0 0 1-36.160948 0l-106.606567-170.570508A21.236028 21.236028 0 0 1 405.105382 725.032543c30.063052 0 70.232406-46.181965 88.526093-75.264237 7.846243-12.451647 28.314704-12.451647 36.160948 0C548.08611 678.850578 588.255465 725.032543 618.318517 725.032543a21.236028 21.236028 0 0 1 18.080473 32.621609zM255.856188 490.498095a63.96394 63.96394 0 1 0 127.927881 0 63.96394 63.96394 0 0 0-127.927881 0z m-81.49006 316.87736a21.321313 21.321313 0 0 0-6.865463-12.067863 654.009969 654.009969 0 0 1-24.135727-22.387379 21.321313 21.321313 0 0 0-28.442632-1.151351C62.471875 815.051128 0.000427 890.187437 0.000427 1002.209618a21.321313 21.321313 0 0 0 21.321313 21.321313h251.975282a21.321313 21.321313 0 0 0 13.517713-37.82401c-59.230609-48.356739-100.210173-113.344102-112.448607-178.331466z" p-id="2236" fill="#1296db"></path></svg>